<?xml version="1.0" encoding="UTF-8" standalone="no"?>
<!DOCTYPE svg PUBLIC "-//W3C//DTD SVG 1.1//EN"
 "http://www.w3.org/Graphics/SVG/1.1/DTD/svg11.dtd">
<!-- Generated by graphviz version 12.1.0 (0)
 -->
<!-- Pages: 1 -->
<svg width="206pt" height="116pt"
 viewBox="0.00 0.00 206.00 116.00" xmlns="http://www.w3.org/2000/svg" xmlns:xlink="http://www.w3.org/1999/xlink">
<g id="graph0" class="graph" transform="scale(1 1) rotate(0) translate(4 112)">
<polygon fill="white" stroke="none" points="-4,4 -4,-112 202,-112 202,4 -4,4"/>
<!-- A -->
<g id="node1" class="node">
<title>A</title>
<polygon fill="none" stroke="black" points="54,-108 0,-108 0,-72 54,-72 54,-108"/>
<text text-anchor="middle" x="27" y="-85.33" font-family="Times,serif" font-size="14.00">A</text>
</g>
<!-- Q -->
<g id="node4" class="node">
<title>Q</title>
<ellipse fill="none" stroke="black" cx="63" cy="-18" rx="27" ry="18"/>
<text text-anchor="middle" x="63" y="-13.32" font-family="Times,serif" font-size="14.00">Q</text>
</g>
<!-- A&#45;&gt;Q -->
<g id="edge1" class="edge">
<title>A&#45;&gt;Q</title>
<path fill="none" stroke="black" d="M35.9,-71.7C39.98,-63.75 44.92,-54.16 49.45,-45.34"/>
<polygon fill="black" stroke="black" points="52.54,-46.98 54,-36.49 46.32,-43.78 52.54,-46.98"/>
</g>
<!-- B -->
<g id="node2" class="node">
<title>B</title>
<polygon fill="none" stroke="black" points="126,-108 72,-108 72,-72 126,-72 126,-108"/>
<text text-anchor="middle" x="99" y="-85.33" font-family="Times,serif" font-size="14.00">B</text>
</g>
<!-- B&#45;&gt;Q -->
<g id="edge2" class="edge">
<title>B&#45;&gt;Q</title>
<path fill="none" stroke="black" d="M90.1,-71.7C86.02,-63.75 81.08,-54.16 76.55,-45.34"/>
<polygon fill="black" stroke="black" points="79.68,-43.78 72,-36.49 73.46,-46.98 79.68,-43.78"/>
</g>
<!-- C -->
<g id="node3" class="node">
<title>C</title>
<polygon fill="none" stroke="black" points="198,-108 144,-108 144,-72 198,-72 198,-108"/>
<text text-anchor="middle" x="171" y="-85.33" font-family="Times,serif" font-size="14.00">C</text>
</g>
<!-- R -->
<g id="node5" class="node">
<title>R</title>
<ellipse fill="none" stroke="black" cx="171" cy="-18" rx="27" ry="18"/>
<text text-anchor="middle" x="171" y="-13.32" font-family="Times,serif" font-size="14.00">R</text>
</g>
<!-- C&#45;&gt;R -->
<g id="edge3" class="edge">
<title>C&#45;&gt;R</title>
<path fill="none" stroke="black" d="M171,-71.7C171,-64.41 171,-55.73 171,-47.54"/>
<polygon fill="black" stroke="black" points="174.5,-47.62 171,-37.62 167.5,-47.62 174.5,-47.62"/>
</g>
</g>
</svg>
